<?xml version="1.0" encoding="utf-8"?>
<!-- Generator: Adobe Illustrator 22.1.0, SVG Export Plug-In . SVG Version: 6.00 Build 0)  -->
<svg version="1.1" id="Layer_1" xmlns="http://www.w3.org/2000/svg" xmlns:xlink="http://www.w3.org/1999/xlink" x="0px" y="0px"
	 viewBox="0 0 328.1 84.2" style="enable-background:new 0 0 328.1 84.2;" xml:space="preserve">
<style type="text/css">
	.st0{fill:#FFFFFF;}
</style>
<g>
	<path class="st0" d="M321.3,9V7.7h-13.4V9c4.8,0.6,5.1,1.5,3.9,5.1c-1.8,5.7-5.9,16.4-9,24.1h-0.1c-3.7-9.3-8-20.9-9.6-25.2
		c-0.9-2.6-0.8-3.5,3.4-3.9V7.7h-15V9c3.5,0.4,4.5,1.3,6.2,5.7c3.3,8.2,8.2,21.2,12.2,32.1h2.1c4.5-12.2,10.6-27,12.2-31
		C316.4,10.4,317.2,9.5,321.3,9 M257.6,46.2h16.1v-1.3c-4.8-0.4-5.3-1.2-5.3-6.2V15.2c0-5,0.5-5.8,5.3-6.1V7.7h-16.1V9
		c4.8,0.4,5.3,1.1,5.3,6.1v23.5c0,5-0.5,5.8-5.3,6.2V46.2z M248.4,17.1l1.3-0.2c-0.3-3.5-0.6-8-0.6-10.7h-1.3
		c-0.9,1.1-1.4,1.5-3,1.5h-23.5c-1.7,0-2.4-0.1-3.3-1.5h-1.2c-0.1,3.2-0.4,7.1-0.7,10.8h1.3c0.7-2.7,1.7-4.4,2.4-5.4
		c0.8-1.3,2-1.8,6.9-1.8h3.4v28.9c0,4.8-0.5,5.3-5.8,5.7v1.7h17.4v-1.7c-5.6-0.4-6-0.9-6-5.7V9.8h3.9c4.3,0,5.3,0.4,6.3,1.8
		C246.7,12.6,247.8,14.2,248.4,17.1 M200.1,46.2h9.6v-1.3c-2.8-0.4-4-1.5-7-4.7c-3.2-3.6-9.3-10.7-13.7-16.3
		c3.8-3.8,7.7-7.8,10.1-10.1c3.7-3.4,5.3-4.4,9.6-4.8V7.7h-14.4V9h1.3c2.7,0.3,2.7,1.5,1.1,3.6c-2.5,3.1-6.3,7-9.6,10.4
		c-1.7,1.5-2.9,2.4-4.2,2.7V15.4c0-5.2,0.5-6,5-6.4V7.7h-15.6V9c4.6,0.4,5.1,1.1,5.1,6.4v23.1c0,5.1-0.5,6.1-5,6.4v1.3h15.8v-1.3
		c-4.9-0.4-5.4-1.3-5.4-6.4V27.3c1-0.2,1.8,0.1,3.1,1.7C191,35.3,195.9,41.3,200.1,46.2 M149.4,46.2h15v-1.3
		c-3.8-0.4-4.6-1.4-6.5-6.6c-3.8-10.2-7.8-21.4-11.4-31.5l-2.1,0.6l-12.2,30.9c-2,5.1-2.8,6-6.6,6.6v1.3h13v-1.3
		c-4.4-0.5-4.9-1.5-3.7-5.1c0.8-2.4,1.7-4.9,2.5-7.3h12.4c1.2,3.4,2.4,6.4,3.1,8.6c0.8,2.4,0.4,3.8-3.4,4.3V46.2z M148.8,29.8h-10.6
		c1.7-4.8,3.6-9.8,5.4-14.7h0.2L148.8,29.8z M121.6,26.5c0-11.8-9.1-19.6-19.2-19.6h-0.1c-12.6,0-20.1,9.9-20.1,20.5
		c0,11.4,8.5,19.8,19.4,19.8C112.6,47,121.6,39.2,121.6,26.5 M115,28.1c0,11.2-5.6,16.7-12,16.7c-8.2,0-14-8.2-14-19.1
		C89,14.7,94.8,9,101.1,9h0.1C108.8,9,115,15.7,115,28.1 M72.2,17.4c0-7.6-7.4-9.7-13.5-9.7c-1.7,0-3.6-0.1-5,0l0,0H43.2V9
		c4.6,0.4,5,1,5,6v23.6c0,5-0.5,5.9-5.3,6.3v1.3h15.9v-1.3c-4.7-0.4-5.2-1.2-5.2-6.3v-0.4v-27c0.3-1.8,1.4-2,3.9-2
		c6,0,8.9,3.9,8.9,8.8c0,4.8-2.3,9-8.6,9h-4.3v1.6c2.1-0.1,3.3-0.1,5.5,2.1c1.7,1.7,21.2,31.1,28.9,42.2l2.4,3.8l0.4,0.8h11.3
		l-0.2-2.1v0c-0.1,0-0.2,0-0.3,0c-1-0.1-1.9-0.3-2.8-0.6c-2.7-1.1-5.4-3.7-7.8-7.1c-1.2-1.6-27.7-40.4-27.7-40.4
		c0.1-0.1,0.2-0.1,0.4-0.2C69.5,25,72.2,22.5,72.2,17.4 M36.7,18.5c0-3.8-1.5-6.6-3.9-8.4c-2.4-1.8-5.7-2.4-10-2.4H7.9V9
		c4.3,0.3,4.8,1,4.8,6.2v23.5c0,4.9-0.5,5.8-5.1,6.2v1.3h16.4l0-1.3c-5.2-0.4-5.7-1.2-5.7-6.1v-9.1c0,0,4.3,1.5,6.9,1.1
		C30.8,30.2,36.7,26.3,36.7,18.5 M30.5,18.8c0,7.6-4.7,9.6-8.2,9.6c-1.8,0-3.4-0.4-4.1-0.7V13c0-1.5,0.2-2.2,0.6-2.7
		c0.4-0.4,1.5-0.7,3.1-0.7C26.5,9.7,30.5,12.3,30.5,18.8"/>
</g>
</svg>
